<svg width="35" height="35" viewBox="0 0 35 35" fill="none" xmlns="http://www.w3.org/2000/svg">
<circle cx="17.5" cy="17.5" r="17" stroke="#0E274D"/>
<path d="M28.5408 12.3432C28.4156 11.8894 28.1701 11.4756 27.8288 11.1432C27.4875 10.8108 27.0625 10.5714 26.5962 10.449C24.8799 10 18 10 18 10C18 10 11.1201 10 9.40379 10.4467C8.93733 10.5687 8.51207 10.8079 8.17073 11.1404C7.82939 11.4729 7.58398 11.8868 7.45915 12.3408C7 14.0127 7 17.5 7 17.5C7 17.5 7 20.9873 7.45915 22.6568C7.71205 23.5788 8.45848 24.3049 9.40379 24.551C11.1201 25 18 25 18 25C18 25 24.8799 25 26.5962 24.551C27.544 24.3049 28.2879 23.5788 28.5408 22.6568C29 20.9873 29 17.5 29 17.5C29 17.5 29 14.0127 28.5408 12.3432ZM15.8147 20.7006V14.2994L21.5112 17.4761L15.8147 20.7006Z" fill="#0E274D"/>
</svg>
