<svg width="15" height="14" viewBox="0 0 15 14" fill="none" xmlns="http://www.w3.org/2000/svg">
<path d="M4.16667 6.37034C4.33889 6.37034 4.48889 6.30749 4.61667 6.18178C4.74444 6.05606 4.80833 5.90849 4.80833 5.73905C4.80833 5.56961 4.74444 5.42203 4.61667 5.29632C4.48889 5.17061 4.33889 5.10775 4.16667 5.10775C3.99444 5.10775 3.84444 5.17061 3.71667 5.29632C3.58889 5.42203 3.525 5.56961 3.525 5.73905C3.525 5.90849 3.58889 6.05606 3.71667 6.18178C3.84444 6.30749 3.99444 6.37034 4.16667 6.37034ZM7.5 6.37034C7.67222 6.37034 7.82222 6.30749 7.95 6.18178C8.07778 6.05606 8.14167 5.90849 8.14167 5.73905C8.14167 5.56961 8.07778 5.42203 7.95 5.29632C7.82222 5.17061 7.67222 5.10775 7.5 5.10775C7.32778 5.10775 7.17778 5.17061 7.05 5.29632C6.92222 5.42203 6.85833 5.56961 6.85833 5.73905C6.85833 5.90849 6.92222 6.05606 7.05 6.18178C7.17778 6.30749 7.32778 6.37034 7.5 6.37034ZM10.8333 6.37034C11.0056 6.37034 11.1556 6.30749 11.2833 6.18178C11.4111 6.05606 11.475 5.90849 11.475 5.73905C11.475 5.56961 11.4111 5.42203 11.2833 5.29632C11.1556 5.17061 11.0056 5.10775 10.8333 5.10775C10.6611 5.10775 10.5111 5.17061 10.3833 5.29632C10.2556 5.42203 10.1917 5.56961 10.1917 5.73905C10.1917 5.90849 10.2556 6.05606 10.3833 6.18178C10.5111 6.30749 10.6611 6.37034 10.8333 6.37034ZM0 14V1.32408C0 0.946943 0.128611 0.632115 0.385833 0.379597C0.6425 0.126532 0.9625 0 1.34583 0H13.6542C14.0375 0 14.3575 0.126532 14.6142 0.379597C14.8714 0.632115 15 0.946943 15 1.32408V10.154C15 10.5312 14.8717 10.8463 14.615 11.0993C14.3578 11.3518 14.0375 11.4781 13.6542 11.4781H2.56417L0 14Z" fill="#838383"/>
</svg>
