<svg width="173" height="173" viewBox="0 0 173 173" fill="none" xmlns="http://www.w3.org/2000/svg">
<path d="M153.778 19.2222H19.2224C16.6734 19.2222 14.2288 20.2348 12.4264 22.0372C10.6239 23.8396 9.61133 26.2843 9.61133 28.8333V144.167C9.61133 146.716 10.6239 149.16 12.4264 150.963C14.2288 152.765 16.6734 153.778 19.2224 153.778H153.778C156.327 153.778 158.772 152.765 160.574 150.963C162.377 149.16 163.389 146.716 163.389 144.167V28.8333C163.389 26.2843 162.377 23.8396 160.574 22.0372C158.772 20.2348 156.327 19.2222 153.778 19.2222ZM19.2224 144.167V28.8333H153.778V144.167H19.2224Z" fill="#0E274D"/>
<path d="M42.8659 67.2777C45.7172 67.2777 48.5045 66.4322 50.8754 64.848C53.2462 63.2639 55.094 61.0123 56.1851 58.378C57.2763 55.7437 57.5618 52.845 57.0055 50.0485C56.4493 47.2519 55.0762 44.6831 53.06 42.6669C51.0438 40.6507 48.475 39.2776 45.6784 38.7214C42.8819 38.1651 39.9832 38.4506 37.3489 39.5417C34.7146 40.6329 32.463 42.4807 30.8789 44.8515C29.2947 47.2223 28.4492 50.0097 28.4492 52.861C28.4492 56.6845 29.9681 60.3515 32.6718 63.0551C35.3754 65.7588 39.0423 67.2777 42.8659 67.2777ZM42.8659 45.1721C44.3886 45.1626 45.8799 45.6054 47.1506 46.4445C48.4214 47.2836 49.4143 48.4811 50.0037 49.8851C50.593 51.2892 50.7521 52.8367 50.4609 54.3314C50.1697 55.826 49.4412 57.2005 48.3678 58.2807C47.2944 59.3608 45.9245 60.0979 44.4317 60.3985C42.9389 60.699 41.3905 60.5496 39.9827 59.9691C38.575 59.3886 37.3713 58.4031 36.5243 57.1377C35.6773 55.8722 35.2251 54.3838 35.2251 52.861C35.2377 50.8384 36.0467 48.9023 37.4769 47.4721C38.9071 46.0418 40.8433 45.2328 42.8659 45.2202V45.1721Z" fill="#0E274D"/>
<path d="M109.471 73.8613L83.5209 99.8113L64.2987 80.5891C63.3983 79.694 62.1803 79.1916 60.9107 79.1916C59.6412 79.1916 58.4232 79.694 57.5228 80.5891L28.4492 110.047V123.647L61.0789 91.0171L76.8892 106.587L58.8684 124.608H72.0837L112.691 84.001L144.167 115.333V101.782L116.247 73.8613C115.346 72.9662 114.128 72.4639 112.859 72.4639C111.589 72.4639 110.371 72.9662 109.471 73.8613Z" fill="#0E274D"/>
</svg>
