<svg width="12" height="12" viewBox="0 0 12 12" fill="none" xmlns="http://www.w3.org/2000/svg">
<path d="M7.5582 0C6.85646 0.000629007 6.16482 0.167154 5.53975 0.485978C4.91467 0.804802 4.37389 1.26689 3.96155 1.8345C3.54921 2.40212 3.277 3.05917 3.16716 3.75202C3.05731 4.44486 3.11294 5.15386 3.3295 5.82111L0.130046 9.01889C0.0887715 9.06019 0.0560427 9.10922 0.0337291 9.16318C0.0114155 9.21713 -4.57875e-05 9.27495 1.3747e-07 9.33333V11.5556C1.3747e-07 11.6734 0.0468418 11.7865 0.13022 11.8698C0.213599 11.9532 0.326685 12 0.4446 12H2.6676C2.78552 12 2.8986 11.9532 2.98198 11.8698C3.06536 11.7865 3.1122 11.6734 3.1122 11.5556V10.6667H4.0014C4.11932 10.6667 4.2324 10.6198 4.31578 10.5365C4.39916 10.4531 4.446 10.3401 4.446 10.2222V9.33333H5.3352C5.3936 9.33338 5.45144 9.32192 5.50542 9.29962C5.55939 9.27731 5.60844 9.24459 5.64976 9.20333L6.18105 8.67167C6.79211 8.86999 7.43891 8.93358 8.07691 8.85804C8.71491 8.7825 9.32896 8.56964 9.87677 8.23411C10.4246 7.89859 10.8931 7.44836 11.2502 6.91444C11.6072 6.38052 11.8443 5.77558 11.945 5.14129C12.0457 4.507 12.0078 3.85842 11.8337 3.24021C11.6596 2.622 11.3536 2.04885 10.9367 1.56021C10.5197 1.07158 10.0018 0.679083 9.41859 0.409739C8.83536 0.140395 8.20066 0.000607061 7.5582 0ZM8.6697 4.22222C8.49383 4.22222 8.32192 4.17009 8.17569 4.07242C8.02946 3.97475 7.91549 3.83592 7.84819 3.6735C7.78089 3.51107 7.76328 3.33235 7.79759 3.15992C7.8319 2.98749 7.91659 2.82911 8.04094 2.70479C8.1653 2.58048 8.32374 2.49582 8.49623 2.46152C8.66872 2.42723 8.8475 2.44483 9.00998 2.51211C9.17246 2.57938 9.31134 2.69332 9.40904 2.83949C9.50675 2.98567 9.5589 3.15753 9.5589 3.33333C9.5589 3.56908 9.46522 3.79517 9.29846 3.96187C9.1317 4.12857 8.90553 4.22222 8.6697 4.22222Z" fill="#1858B8"/>
</svg>
