<svg width="17" height="19" viewBox="0 0 17 19" fill="none" xmlns="http://www.w3.org/2000/svg">
<path d="M11.6318 1.38173C10.8366 0.490689 9.72593 0 8.5 0C7.26753 0 6.15317 0.48772 5.36162 1.37325C4.5615 2.26854 4.17166 3.48529 4.26319 4.79917C4.44463 7.3913 6.34523 9.49994 8.5 9.49994C10.6548 9.49994 12.5521 7.39172 12.7364 4.80002C12.8292 3.49801 12.4369 2.2838 11.6318 1.38173ZM15.6921 18.9999H1.30789C1.11961 19.0024 0.933159 18.9614 0.762092 18.8797C0.591025 18.7981 0.439648 18.6779 0.318975 18.5279C0.0533573 18.1983 -0.0537071 17.7484 0.0255696 17.2933C0.370464 15.3076 1.44683 13.6396 3.13861 12.4687C4.6416 11.4292 6.54546 10.8571 8.5 10.8571C10.4545 10.8571 12.3584 11.4296 13.8614 12.4687C15.5532 13.6392 16.6295 15.3072 16.9744 17.2929C17.0537 17.7479 16.9466 18.1979 16.681 18.5274C16.5604 18.6775 16.409 18.7978 16.238 18.8795C16.0669 18.9613 15.8804 19.0024 15.6921 18.9999Z" fill="#1858B8"/>
</svg>
