<svg id="Layer_1" data-name="Layer 1" xmlns="http://www.w3.org/2000/svg" viewBox="0 0 210.62579 82.6404"><defs><style>.cls-1,.cls-3{fill:#2b68c4;}.cls-1,.cls-2{fill-rule:evenodd;}.cls-2{fill:#fff;}</style></defs><path class="cls-1" d="M77.6055,70.15335H129.831a14.91771,14.91771,0,0,1,14.87432,14.87421v52.892a14.91771,14.91771,0,0,1-14.87432,14.8742H77.6055a14.91762,14.91762,0,0,1-14.8742-14.8742v-52.892A14.91761,14.91761,0,0,1,77.6055,70.15335" transform="translate(-62.7313 -70.15335)"/><path class="cls-2" d="M103.6678,150.59769c20.5965,0,37.2935-17.356,37.2935-38.76549s-16.697-38.7655-37.2935-38.7655-37.2932,17.356-37.2932,38.7655,16.6967,38.76549,37.2932,38.76549" transform="translate(-62.7313 -70.15335)"/><path class="cls-3" d="M90.0108,104.6977q.2508,0,.4983-.0085a6.13,6.13,0,0,1-.4762-1.5639,5.87536,5.87536,0,0,1,0-1.8876,7.82319,7.82319,0,0,1,3.888-5.2027,13.462,13.462,0,0,0-3.9101-.5579c-4.527,0-8.1961,2.0645-8.1961,4.61029,0,2.54641,3.6691,4.61031,8.1961,4.61031" transform="translate(-62.7313 -70.15335)"/><path class="cls-3" d="M103.4413,108.5049c6.2087,0,11.2419-2.831,11.2419-6.3235,0-3.4923-5.0332-6.32331-11.2419-6.32331-6.2084,0-11.2416,2.831-11.2416,6.32331,0,3.4925,5.0332,6.3235,11.2416,6.3235m0-14.0519a7.0261,7.0261,0,1,0-7.0259-7.0262A7.026,7.026,0,0,0,103.4413,94.453Z" transform="translate(-62.7313 -70.15335)"/><path class="cls-3" d="M90.0105,94.453a5.12251,5.12251,0,1,0-5.1225-5.12249A5.12247,5.12247,0,0,0,90.0105,94.453" transform="translate(-62.7313 -70.15335)"/><path class="cls-3" d="M117.3251,94.453a5.12251,5.12251,0,1,0-5.1225-5.12249,5.12241,5.12241,0,0,0,5.1225,5.12249" transform="translate(-62.7313 -70.15335)"/><path class="cls-3" d="M117.3251,104.6977c4.5267,0,8.1961-2.0639,8.1961-4.61031,0-2.54579-3.6694-4.61029-8.1961-4.61029a13.28283,13.28283,0,0,0-4.2105.6546,7.74159,7.74159,0,0,1,3.7354,5.106,5.87536,5.87536,0,0,1,0,1.8876,6.13793,6.13793,0,0,1-.4665,1.5418q.46335.03014.9416.0306" transform="translate(-62.7313 -70.15335)"/><path class="cls-3" d="M101.9639,143.1057a2.26232,2.26232,0,1,1,3.1921.216,2.26238,2.26238,0,0,1-3.1921-.216" transform="translate(-62.7313 -70.15335)"/><path class="cls-3" d="M93.763,142.5201a1.37212,1.37212,0,1,1,1.9361.1309,1.37243,1.37243,0,0,1-1.9361-.1309" transform="translate(-62.7313 -70.15335)"/><path class="cls-3" d="M113.4201,142.5201a1.37212,1.37212,0,1,0-1.936.1309,1.372,1.372,0,0,0,1.936-.1309" transform="translate(-62.7313 -70.15335)"/><path class="cls-3" d="M89.5867,136.514a2.19552,2.19552,0,1,1,3.0977.2095,2.19588,2.19588,0,0,1-3.0977-.2095" transform="translate(-62.7313 -70.15335)"/><path class="cls-3" d="M96.6988,136.514a2.19552,2.19552,0,1,1,3.0977.2095,2.19532,2.19532,0,0,1-3.0977-.2095" transform="translate(-62.7313 -70.15335)"/><path class="cls-3" d="M117.7492,136.514a2.19541,2.19541,0,1,0-3.0977.2095,2.19561,2.19561,0,0,0,3.0977-.2095" transform="translate(-62.7313 -70.15335)"/><path class="cls-3" d="M110.3312,136.514a2.19541,2.19541,0,1,0-3.0977.2095,2.19514,2.19514,0,0,0,3.0977-.2095" transform="translate(-62.7313 -70.15335)"/><path class="cls-3" d="M135.2829,118.3904a1.54193,1.54193,0,0,1,.43851,1.0764v2.4976a1.55108,1.55108,0,0,1-1.5468,1.54649c-1.64391,0-4.37331-.08219-5.27842.04141a2.16983,2.16983,0,0,0-.82749.2906c1.3357-3.7483,2.456-5.7838,4.7115-5.9743a3.88226,3.88226,0,0,1,2.5027.5218m-57.8642-.591c1.5687-1.5908,3.6734-.8087,3.6734,2.124q-.10875-.18795-.2273-.3642a4.23449,4.23449,0,0,0-1.2558-1.3918A4.05462,4.05462,0,0,0,77.4187,117.7994Zm-1.3345-.00961a2.82062,2.82062,0,0,0,.4858-.01759c.0077-.00571.0754-.1672.1908-.4448a14.459,14.459,0,0,1,.771-1.61,4.85129,4.85129,0,0,1,2.255-2.2079,3.25913,3.25913,0,0,1,1.4734-.2642,3.32055,3.32055,0,0,1,1.4258.4212,5.05867,5.05867,0,0,1,2.0931,2.5237l.2073.4915c.2792.6707.4175,1.00179.5448,1.0698a5.54235,5.54235,0,0,0,1.6098.0865l.9754-.0003c.8427.00339,3.8078.0272,4.9337-.0391a7.34116,7.34116,0,0,0,.1151,1.1911c.7429-2.3638,2.1274-5.4876,5.0385-5.6064a4.089,4.089,0,0,1,1.0715.1511,3.896,3.896,0,0,1,1.9713,1.641,10.3511,10.3511,0,0,1,.8569,1.6308,4.85277,4.85277,0,0,0,.4617,1.057,62.57775,62.57775,0,0,0,7.2431-.0437,7.74987,7.74987,0,0,0,.1372,1.1064c.0831-.2642.146-.686.2347-.9363.705-1.9842,2.3329-4.7015,4.6667-4.7871,2.3445-.08621,3.6689,2.3499,4.4728,4.1434a2.50921,2.50921,0,0,0,.2251.4586c-.2506.0037,5.7549.0961,8.0691-.0649a7.1507,7.1507,0,0,0,.0691,1.224c.5911-1.9681,1.24081-4.4291,3.2868-5.383a2.27434,2.27434,0,0,1,1.4165-.2486c1.3056.292,1.25771,1.9151,1.10291,2.9395-1.8844-.6403-3.723,1.7672-5.59561,7.6972a1.03513,1.03513,0,0,0-.1536.16159,8.15223,8.15223,0,0,0-.5559.92161c-.896,1.6273-2.0341,3.69409-4.6635,2.7189a4.20837,4.20837,0,0,1-2.2848-2.4655c-.4195-.8408-.8333-1.6691-1.8734-1.7246-.9306-.0499-3.2352-.1145-5.1417-.0281a14.9648,14.9648,0,0,0-1.9956.1882c2.0732-4.28961,4.1091-5.7282,6.0905-3.5728a10.68326,10.68326,0,0,0-.6616-1.4456c-1.4786-2.1484-3.308-1.4905-4.9008,1.8887a26.14423,26.14423,0,0,0-1.4261,4.3328c-.7872,1.5743-1.9562,3.5606-4.7702,2.8924-1.5899-.37951-2.2277-1.7529-2.7898-2.9636-.3087-.6653-.5843-1.2583-.7708-1.2889-.3948-.0649-2.5821-.0842-4.6536-.0601-1.275.015-2.4817.0437-3.1536.0848,1.7312-4.04,3.424-5.6098,6.1889-3.4405q-3.0861-6.7167-6.5092,3.4957l-.2588.6514c-.6468,1.6345-1.6322,4.123-4.7817,3.58759-1.7368-.29509-2.3216-1.51259-2.8922-2.70059-.3804-.7923-.7523-1.5667-1.4797-1.6739h-.0034a44.64888,44.64888,0,0,0-4.9091-.0365c-1.3887.0317-2.7314.01919-4.111.01919h-.29a1.5511,1.5511,0,0,1-1.5469-1.54649v-2.6258a1.55278,1.55278,0,0,1,1.1959-1.5063A8.16584,8.16584,0,0,1,76.0842,117.78979Z" transform="translate(-62.7313 -70.15335)"/><path class="cls-2" d="M77.4187,117.7994c1.5687-1.5908,3.6734-.8087,3.6734,2.124q-.10875-.18795-.2273-.3642c-.6387-1.3241-1.6824-1.8644-3.4461-1.7598" transform="translate(-62.7313 -70.15335)"/><polygon class="cls-2" points="9.07 55.385 9.07 55.385 9.07 55.385 9.07 55.385"/><path class="cls-3" d="M219.4622,87.11795h6.8131v22.0422h-6.8131v-2.5248a7.74667,7.74667,0,0,1-6.3323,3.0458,7.30628,7.30628,0,0,1-5.75121-2.3643,9.29859,9.29859,0,0,1-2.10389-6.4126V87.11795h6.81311v12.2636a4.59375,4.59375,0,0,0,.7415,2.8655,3.22065,3.22065,0,0,0,2.66519.942q3.9675,0,3.9676-4.36851Z" transform="translate(-62.7313 -70.15335)"/><rect class="cls-3" x="169.2521" y="8.14769" width="6.8134" height="30.85911"/><path class="cls-3" d="M265.8223,109.16015V87.11795h6.81341v22.0422Zm3.4067-32.4623a4.13651,4.13651,0,0,1,2.96589,1.10209,3.6752,3.6752,0,0,1,1.1622,2.78531,3.72206,3.72206,0,0,1-1.1622,2.82559,4.48361,4.48361,0,0,1-5.91138-.02009,3.7085,3.7085,0,0,1-1.18231-2.8055,3.64529,3.64529,0,0,1,1.18231-2.78531A4.153,4.153,0,0,1,269.229,76.69785Z" transform="translate(-62.7313 -70.15335)"/><path class="cls-3" d="M169.9586,130.57935q3.4866,0,3.48661-3.2066,0-3.206-3.48661-3.2059h-4.92981v6.4125Zm.28031-12.905a10.45293,10.45293,0,0,1,7.33378,2.5251,9.11819,9.11819,0,0,1,2.76581,7.0934,9.344,9.344,0,0,1-2.7856,7.1739,10.27611,10.27611,0,0,1-7.314,2.6048h-5.21012v8.6567H158.2157v-28.0539Z" transform="translate(-62.7313 -70.15335)"/><rect class="cls-3" x="121.4974" y="44.7155" width="6.8131" height="30.85941"/><path class="cls-3" d="M202.8645,138.37405a4.69244,4.69244,0,0,0,6.6527,0,5.71709,5.71709,0,0,0,0-7.314,4.64585,4.64585,0,0,0-6.6527,0,5.71709,5.71709,0,0,0,0,7.314m7.9753-14.688h6.8134l-.0403,22.04221h-6.8131v-2.3647a7.64071,7.64071,0,0,1-6.21209,2.8857,9.04767,9.04767,0,0,1-7.09342-3.2462,13.47823,13.47823,0,0,1,.01981-16.5918,9.02482,9.02482,0,0,1,7.0336-3.2465,7.53432,7.53432,0,0,1,6.2921,3.0061Z" transform="translate(-62.7313 -70.15335)"/><path class="cls-3" d="M232.367,146.24925a13.32044,13.32044,0,0,1-7.5144-2.0038,7.97646,7.97646,0,0,1-3.62691-5.49041H228.119q.56085,2.36446,4.3282,2.36461,3.0057,0,3.0058-1.523a1.00476,1.00476,0,0,0-.76159-.942,32.33246,32.33246,0,0,0-3.68711-.9416q-4.84937-1.0422-6.853-2.5651a5.15768,5.15768,0,0,1-2.0038-4.3685,6.54093,6.54093,0,0,1,2.70509-5.5706,12.32577,12.32577,0,0,1,7.4744-2.0038q8.81685,0,9.9391,6.8932h-6.8933q-.4809-1.76325-3.3264-1.7634-3.0057,0-3.0056,1.563a.68667.68667,0,0,0,.46089.70131,20.71557,20.71557,0,0,0,2.30431.5811q.3606.0804.521.1205a26.20758,26.20758,0,0,1,7.81511,2.6649,5.10688,5.10688,0,0,1,2.3244,4.6689,6.4612,6.4612,0,0,1-2.82561,5.6509,12.47091,12.47091,0,0,1-7.2739,1.9638" transform="translate(-62.7313 -70.15335)"/><path class="cls-3" d="M261.73471,138.835l1.1622,5.4907a11.11392,11.11392,0,0,1-3.0058,1.3227,13.23706,13.23706,0,0,1-3.88742.6009,8.532,8.532,0,0,1-5.99159-2.2241q-2.42492-2.2245-2.4245-6.8334V96.34705h-3.7673V89.93476h3.7673V79.78334l6.81281-1.48279V89.93476h7.41429v6.41229h-7.41429v40.4441q0,3.12315,2.8054,3.1261a19.3956,19.3956,0,0,0,4.5289-1.0823" transform="translate(-62.7313 -70.15335)"/><path class="cls-3" d="M190.29089,79.98094a8.6798,8.6798,0,0,1,6.7688,2.73941,10.82191,10.82191,0,0,1,2.48381,7.5452V109.258h-6.96389V91.75545a6.01908,6.01908,0,0,0-1.09591-3.9166,4.33468,4.33468,0,0,0-3.5305-1.3218,5.06577,5.06577,0,0,0-4.13949,1.7062,7.46787,7.46787,0,0,0-1.41221,4.8778V109.258h-6.96389V91.75545a6.019,6.019,0,0,0-1.09561-3.9166,4.33548,4.33548,0,0,0-3.53051-1.3218,5.13846,5.13846,0,0,0-4.16378,1.7062,7.34572,7.34572,0,0,0-1.43691,4.8778l.049,16.1569h-7.01261V80.55774h7.01261V84.066a9.25418,9.25418,0,0,1,7.9376-4.085q5.8443,0,8.13291,4.99831a9.95648,9.95648,0,0,1,8.96058-4.99831" transform="translate(-62.7313 -70.15335)"/></svg>